<svg version="1.2" xmlns="http://www.w3.org/2000/svg" viewBox="0 0 700 220" width="700" height="220">
	<title>vectorstock_409834-ai</title>
	<defs>
		<linearGradient id="g1" x1="690.5" y1="130.3" x2="690.5" y2="236.3" gradientUnits="userSpaceOnUse">
			<stop offset="0" stop-color="#ffffff"/>
			<stop offset=".4" stop-color="#c2c2c2"/>
			<stop offset=".5" stop-color="#ebebeb"/>
		</linearGradient>
		<linearGradient id="g2" x1="411.6" y1="169.1" x2="411.6" y2="206.8" gradientUnits="userSpaceOnUse">
			<stop offset="0" stop-color="#ffffff"/>
			<stop offset=".4" stop-color="#c2c2c2"/>
			<stop offset=".5" stop-color="#ebebeb"/>
		</linearGradient>
		<linearGradient id="g3" x1="283" y1="177.1" x2="283" y2="232.2" gradientUnits="userSpaceOnUse">
			<stop offset="0" stop-color="#ffffff"/>
			<stop offset=".4" stop-color="#c2c2c2"/>
			<stop offset=".5" stop-color="#ebebeb"/>
		</linearGradient>
	</defs>
	<style>
		.s0 { fill: url(#g1);stroke: #000000;stroke-width: 4 } 
		.s1 { fill: url(#g2);stroke: #000000;stroke-width: 2 } 
		.s2 { fill: #ffffff;stroke: #000000;stroke-width: 2 } 
		.s3 { fill: none;stroke: #000000;stroke-width: 2 } 
		.s4 { fill: none;stroke: #000000 } 
		.s5 { fill: #ffffff } 
		.s6 { fill: url(#g3);stroke: #000000;stroke-width: 2 } 
		.s7 { fill: #ffffff;stroke: #000000 } 
	</style>
	<g id="main copy">
		<g id="&lt;Group&gt;">
			<g id="&lt;Group&gt;">
				<path id="&lt;Path&gt;" class="s0" d="m214.2 190.3h-104.5c-39.6 0-63.3-4.7-75.2-8.1-53.1-17.6 0-37.4 0-37.4l16.4-13.4c17.4-14.4 53-15.4 53-15.4h380.2q14.5-0.2 27.9-0.3 0 0 0 0 3.1 0 6.2 0c32.7-1.3 49.3-21.5 49.3-21.5l74.5-86.3h33.7l-28.2 113.2q2.8 0.2 5.4 0.5l20.2 2.5c10.8 1.4 15.5 2.4 15.5 2.4v12.3c0 0-154 51.5-220.4 51.5h-84.3z"/>
				<path id="&lt;Path&gt;" class="s1" d="m217.6 191.5c-1.1-0.3-2.6-0.8-3.4-1.2-8.6-3.9-7.2-13.3-7.2-13.3 2.8-20.2 27.1-18.6 27.1-18.6l3.6 0.2 11 0.5 30.2 1.4 96 5.7c3.2 0.7 7.6 1.6 11.3 2.8 0 0 13.4 4.5 19 8.4 4.7 3.3 9.1 7.5-5.6 10.2-3.8 0.7-8.9 1.7-15.7 2.7-14.2 2.1-37.2 4.3-70.1 4.1z"/>
				<path id="&lt;Path&gt;" class="s2" d="m230.8 171.2c0.4-3.2 5.2-3.5 5.2-3.5l153.6-25.7 26.5-1.4 12.9-7.3h4.2l-6.3 5.8 0.4 8.6h-3.9l-5.6-4.2-31.8 14.2h3.1v4.2h-14.2v4.3h-10.3l1.9 7.4h-12.2v1 4.7h-18.6c0 0-4.7 6-24.3 6l-0.8 2.5-16.6 1.1-20.7-5.4-36.5-8.5z"/>
				<g id="&lt;Group&gt;">
					<path id="&lt;Path&gt;" class="s3" d="m647.5 121.1c-29.1-2.8-74.3-5.6-135-5.4"/>
					<g id="&lt;Group&gt;">
						<g id="&lt;Group&gt;">
							<g id="&lt;Group&gt;">
								<path id="&lt;Path&gt;" class="s4" d="m280.1 160.3c11 8.9 50.4 7 50.4 7l1.7 6.3h22.1"/>
								<path id="&lt;Path&gt;" class="s4" d="m254.1 172.1l28.1-5.2 3.8 4 4.9-0.2 27.1 1.8v6.9h-22.1l-2.4-4.7h-7l-0.3 7.3"/>
								<path id="&lt;Path&gt;" class="s4" d="m364.6 166.2h-43.1l-14-4.1 67.4-0.2h-23.6l-20.8-4.2h55.5"/>
							</g>
							<path id="&lt;Path&gt;" class="s4" d="m331.6 171.3h33.9"/>
						</g>
						<g id="&lt;Group&gt;">
							<path id="&lt;Path&gt;" class="s4" d="m683.6 125.6v14.5"/>
							<g id="&lt;Group&gt;">
								<path id="&lt;Path&gt;" class="s4" d="m622.6 119l-8.1-6.1 49-105"/>
								<g id="&lt;Group&gt;">
									<path id="&lt;Path&gt;" class="s4" d="m352.5 193.4c0 0-3.1 4.1-6.5 0.4"/>
									<g id="&lt;Group&gt;">
										<path id="&lt;Path&gt;" class="s4" d="m647.3 151.8l-0.4 3.2-7.2-0.9"/>
										<g id="&lt;Group&gt;">
											<path id="&lt;Path&gt;" class="s4" d="m283.6 116c0 0 3.1-3.6 6.5 0"/>
											<g id="&lt;Group&gt;">
												<g id="&lt;Group&gt;">
													<path id="&lt;Path&gt;" class="s5" d="m634.9 139.9c0 0.5-0.4 1.1-0.9 1.3l-25.6 8.7c-0.5 0.2-1.3 0.2-1.8 0l-13.3-4.8c-0.5-0.2-0.9-0.8-0.9-1.4v-9.6c0-0.6 0.4-1.2 0.9-1.4l13.3-4.9c0.5-0.2 1.3-0.2 1.8 0l25.6 8.8c0.5 0.2 0.9 0.8 0.9 1.3z"/>
													<path id="&lt;Path&gt;" class="s3" d="m634.9 139.9c0 0.5-0.4 1.1-0.9 1.3l-25.6 8.7c-0.5 0.2-1.3 0.2-1.8 0l-13.3-4.8c-0.5-0.2-0.9-0.8-0.9-1.4v-9.6c0-0.6 0.4-1.2 0.9-1.4l13.3-4.9c0.5-0.2 1.3-0.2 1.8 0l25.6 8.8c0.5 0.2 0.9 0.8 0.9 1.3z"/>
												</g>
												<g id="&lt;Group&gt;">
													<path id="&lt;Compound Path&gt;" class="s4" d="m44.6 136.5h6l-5.7 7.1-10.4 1.2m23.3-8.3v10h-7.4l-3.5-2.4 6.1-7.6z"/>
													<path id="&lt;Path&gt;" class="s4" d="m64.6 136.5l3.9 3.5v6.5h-8.8v-10z"/>
												</g>
												<path id="&lt;Path&gt;" class="s4" d="m24.1 149.8l3.6 5.8c0.5 0.9 0.9 2.4 0.9 3.4v21.1"/>
												<path id="&lt;Path&gt;" class="s4" d="m111.5 116l5.2-4.7h2.5l-2.2 4.7"/>
												<path id="&lt;Path&gt;" class="s4" d="m396.4 116l5.1-4.7h2.6l-2.3 4.7"/>
												<path id="&lt;Path&gt;" class="s4" d="m399.5 190.3l2.2 4.8h-2.5l-5.2-4.8"/>
												<path id="&lt;Path&gt;" class="s4" d="m417.7 190.3l0.9 2.8h-3.8l-2.6-2.8"/>
												<path id="&lt;Path&gt;" class="s4" d="m363.6 116c0 0 4.2-5.1 9 0"/>
												<path id="&lt;Path&gt;" class="s4" d="m321.9 116c0 0 4.3-5.1 9.1 0"/>
												<path id="&lt;Path&gt;" class="s4" d="m179.4 190.3c0 0-3.1 3.7-6.5 0"/>
												<path id="&lt;Path&gt;" class="s4" d="m205.3 190.3c0 0-3 3.7-6.5 0"/>
												<path id="&lt;Path&gt;" class="s4" d="m44.2 159.6c0-1.1 0.9-2 2-2h3.1c1.1 0 2 0.9 2 2v3.1c0 1.1-0.9 2-2 2h-3.1c-1.1 0-2-0.9-2-2z"/>
												<path id="&lt;Path&gt;" class="s4" d="m131.3 177c0-1.1 0.9-2 2-2h5.8c1.1 0 2 0.9 2 2v5.7c0 1.1-0.9 2-2 2h-5.8c-1.1 0-2-0.9-2-2z"/>
												<path id="&lt;Path&gt;" class="s4" d="m101.3 190.3v-9"/>
												<path id="&lt;Path&gt;" class="s4" d="m156.2 156.7c-0.7 0-1.3-0.6-1.3-1.3 0-0.7 0.6-1.3 1.3-1.3 0.7 0 1.3 0.6 1.3 1.3 0 0.7-0.6 1.3-1.3 1.3z"/>
												<g id="&lt;Group&gt;">
													<g id="&lt;Group&gt;">
														<g id="&lt;Group&gt;">
															<path id="&lt;Path&gt;" class="s4" d="m129.5 142.7c0 1.3-1 2.3-2.3 2.3-1.2 0-2.2-1-2.2-2.3v-2.1c0-1.3 1-2.3 2.2-2.3 1.3 0 2.3 1 2.3 2.3z"/>
														</g>
														<g id="&lt;Group&gt;">
															<path id="&lt;Path&gt;" class="s4" d="m138.9 142.7c0 1.3-1 2.3-2.2 2.3-1.2 0-2.2-1-2.2-2.3v-2.1c0-1.3 1-2.3 2.2-2.3 1.2 0 2.2 1 2.2 2.3z"/>
														</g>
														<g id="&lt;Group&gt;">
															<path id="&lt;Path&gt;" class="s4" d="m148.4 142.7c0 1.3-1 2.3-2.2 2.3-1.3 0-2.3-1-2.3-2.3v-2.1c0-1.3 1-2.3 2.3-2.3 1.2 0 2.2 1 2.2 2.3z"/>
														</g>
														<g id="&lt;Group&gt;">
															<path id="&lt;Path&gt;" class="s4" d="m157.9 142.7c0 1.3-1.1 2.3-2.3 2.3-1.2 0-2.2-1-2.2-2.3v-2.1c0-1.3 1-2.3 2.2-2.3 1.2 0 2.3 1 2.3 2.3z"/>
														</g>
														<g id="&lt;Group&gt;">
															<path id="&lt;Path&gt;" class="s4" d="m167.3 142.7c0 1.3-1 2.3-2.2 2.3-1.3 0-2.3-1-2.3-2.3v-2.1c0-1.3 1-2.3 2.3-2.3 1.2 0 2.2 1 2.2 2.3z"/>
														</g>
														<g id="&lt;Group&gt;">
															<path id="&lt;Path&gt;" class="s4" d="m176.8 142.7c0 1.3-1 2.3-2.3 2.3-1.2 0-2.2-1-2.2-2.3v-2.1c0-1.3 1-2.3 2.2-2.3 1.3 0 2.3 1 2.3 2.3z"/>
														</g>
														<g id="&lt;Group&gt;">
															<path id="&lt;Path&gt;" class="s4" d="m186.2 142.7c0 1.3-1 2.3-2.2 2.3-1.3 0-2.3-1-2.3-2.3v-2.1c0-1.3 1-2.3 2.3-2.3 1.2 0 2.2 1 2.2 2.3z"/>
														</g>
														<g id="&lt;Group&gt;">
															<path id="&lt;Path&gt;" class="s4" d="m195.7 142.7c0 1.3-1 2.3-2.3 2.3-1.2 0-2.2-1-2.2-2.3v-2.1c0-1.3 1-2.3 2.2-2.3 1.3 0 2.3 1 2.3 2.3z"/>
														</g>
														<g id="&lt;Group&gt;">
															<path id="&lt;Path&gt;" class="s4" d="m205.1 142.7c0 1.3-1 2.3-2.2 2.3-1.3 0-2.3-1-2.3-2.3v-2.1c0-1.3 1-2.3 2.3-2.3 1.2 0 2.2 1 2.2 2.3z"/>
														</g>
														<g id="&lt;Group&gt;">
															<path id="&lt;Path&gt;" class="s4" d="m214.6 142.7c0 1.3-1 2.3-2.3 2.3-1.2 0-2.2-1-2.2-2.3v-2.1c0-1.3 1-2.3 2.2-2.3 1.3 0 2.3 1 2.3 2.3z"/>
														</g>
														<g id="&lt;Group&gt;">
															<path id="&lt;Path&gt;" class="s4" d="m224 142.7c0 1.3-1 2.3-2.2 2.3-1.2 0-2.3-1-2.3-2.3v-2.1c0-1.3 1.1-2.3 2.3-2.3 1.2 0 2.2 1 2.2 2.3z"/>
														</g>
														<g id="&lt;Group&gt;">
															<path id="&lt;Path&gt;" class="s4" d="m233.5 142.7c0 1.3-1 2.3-2.3 2.3-1.2 0-2.2-1-2.2-2.3v-2.1c0-1.3 1-2.3 2.2-2.3 1.3 0 2.3 1 2.3 2.3z"/>
														</g>
														<g id="&lt;Group&gt;">
															<path id="&lt;Path&gt;" class="s4" d="m242.9 142.7c0 1.3-1 2.3-2.2 2.3-1.2 0-2.2-1-2.2-2.3v-2.1c0-1.3 1-2.3 2.2-2.3 1.2 0 2.2 1 2.2 2.3z"/>
														</g>
														<g id="&lt;Group&gt;">
															<path id="&lt;Path&gt;" class="s4" d="m252.4 142.7c0 1.3-1 2.3-2.2 2.3-1.3 0-2.3-1-2.3-2.3v-2.1c0-1.3 1-2.3 2.3-2.3 1.2 0 2.2 1 2.2 2.3z"/>
														</g>
														<g id="&lt;Group&gt;">
															<path id="&lt;Path&gt;" class="s4" d="m261.9 142.7c0 1.3-1.1 2.3-2.3 2.3-1.2 0-2.2-1-2.2-2.3v-2.1c0-1.3 1-2.3 2.2-2.3 1.2 0 2.3 1 2.3 2.3z"/>
														</g>
													</g>
													<g id="&lt;Group&gt;">
														<g id="&lt;Group&gt;">
															<path id="&lt;Path&gt;" class="s4" d="m301 142.7c0 1.3-1 2.3-2.2 2.3-1.3 0-2.3-1-2.3-2.3v-2.1c0-1.3 1-2.3 2.3-2.3 1.2 0 2.2 1 2.2 2.3z"/>
														</g>
														<g id="&lt;Group&gt;">
															<path id="&lt;Path&gt;" class="s4" d="m310.4 142.7c0 1.3-1 2.3-2.2 2.3-1.2 0-2.2-1-2.2-2.3v-2.1c0-1.3 1-2.3 2.2-2.3 1.2 0 2.2 1 2.2 2.3z"/>
														</g>
														<g id="&lt;Group&gt;">
															<path id="&lt;Path&gt;" class="s4" d="m319.9 142.7c0 1.3-1 2.3-2.3 2.3-1.2 0-2.2-1-2.2-2.3v-2.1c0-1.3 1-2.3 2.2-2.3 1.3 0 2.3 1 2.3 2.3z"/>
														</g>
														<g id="&lt;Group&gt;">
															<path id="&lt;Path&gt;" class="s4" d="m329.3 142.7c0 1.3-1 2.3-2.2 2.3-1.3 0-2.3-1-2.3-2.3v-2.1c0-1.3 1-2.3 2.3-2.3 1.2 0 2.2 1 2.2 2.3z"/>
														</g>
														<g id="&lt;Group&gt;">
															<path id="&lt;Path&gt;" class="s4" d="m338.8 142.7c0 1.3-1 2.3-2.3 2.3-1.2 0-2.2-1-2.2-2.3v-2.1c0-1.3 1-2.3 2.2-2.3 1.3 0 2.3 1 2.3 2.3z"/>
														</g>
														<g id="&lt;Group&gt;">
															<path id="&lt;Path&gt;" class="s4" d="m348.2 142.7c0 1.3-1 2.3-2.2 2.3-1.3 0-2.3-1-2.3-2.3v-2.1c0-1.3 1-2.3 2.3-2.3 1.2 0 2.2 1 2.2 2.3z"/>
														</g>
														<g id="&lt;Group&gt;">
															<path id="&lt;Path&gt;" class="s4" d="m357.7 142.7c0 1.3-1 2.3-2.3 2.3-1.2 0-2.2-1-2.2-2.3v-2.1c0-1.3 1-2.3 2.2-2.3 1.3 0 2.3 1 2.3 2.3z"/>
														</g>
														<g id="&lt;Group&gt;">
															<path id="&lt;Path&gt;" class="s4" d="m367.1 142.7c0 1.3-1 2.3-2.2 2.3-1.3 0-2.3-1-2.3-2.3v-2.1c0-1.3 1-2.3 2.3-2.3 1.2 0 2.2 1 2.2 2.3z"/>
														</g>
														<g id="&lt;Group&gt;">
															<path id="&lt;Path&gt;" class="s4" d="m373.1 144.7c-0.6-0.4-1-1.1-1-2v-2.1c0-1.3 1-2.3 2.2-2.3 1.2 0 2.3 1 2.3 2.3v2.1c0 0.6-0.3 1.1-0.6 1.5"/>
														</g>
														<g id="&lt;Group&gt;">
															<path id="&lt;Path&gt;" class="s4" d="m381.5 143.3v-2.7c0-1.3 1-2.3 2.3-2.3 1.2 0 2.2 1 2.2 2.3v2"/>
														</g>
														<g id="&lt;Group&gt;">
															<path id="&lt;Path&gt;" class="s4" d="m390.9 141.9v-1.3c0-1.3 1.1-2.3 2.3-2.3 1.2 0 2.2 1 2.2 2.3v1.1"/>
														</g>
														<g id="&lt;Group&gt;">
															<path id="&lt;Path&gt;" class="s4" d="m400.4 141.4v-0.8c0-1.3 1-2.3 2.2-2.3 1.3 0 2.3 1 2.3 2.3v0.6"/>
														</g>
														<g id="&lt;Group&gt;">
															<path id="&lt;Path&gt;" class="s4" d="m409.8 140.9v-0.3c0-1.3 1-2.3 2.3-2.3 1.2 0 2.2 1 2.2 2.3v0.1"/>
														</g>
														<g id="&lt;Group&gt;">
															<path id="&lt;Path&gt;" class="s4" d="m433.2 142.7c0 1.3-1 2.3-2.2 2.3-1.3 0-2.3-1-2.3-2.3v-2.1c0-1.3 1-2.3 2.3-2.3 1.2 0 2.2 1 2.2 2.3z"/>
														</g>
														<g id="&lt;Group&gt;">
															<path id="&lt;Path&gt;" class="s4" d="m442.7 142.7c0 1.3-1 2.3-2.3 2.3-1.2 0-2.2-1-2.2-2.3v-2.1c0-1.3 1-2.3 2.2-2.3 1.3 0 2.3 1 2.3 2.3z"/>
														</g>
														<g id="&lt;Group&gt;">
															<path id="&lt;Path&gt;" class="s4" d="m452.1 142.7c0 1.3-1 2.3-2.2 2.3-1.3 0-2.3-1-2.3-2.3v-2.1c0-1.3 1-2.3 2.3-2.3 1.2 0 2.2 1 2.2 2.3z"/>
														</g>
														<g id="&lt;Group&gt;">
															<path id="&lt;Path&gt;" class="s4" d="m461.6 142.7c0 1.3-1.1 2.3-2.3 2.3-1.2 0-2.2-1-2.2-2.3v-2.1c0-1.3 1-2.3 2.2-2.3 1.2 0 2.3 1 2.3 2.3z"/>
														</g>
														<g id="&lt;Group&gt;">
															<path id="&lt;Path&gt;" class="s4" d="m471 142.7c0 1.3-1 2.3-2.2 2.3-1.3 0-2.3-1-2.3-2.3v-2.1c0-1.3 1-2.3 2.3-2.3 1.2 0 2.2 1 2.2 2.3z"/>
														</g>
														<g id="&lt;Group&gt;">
															<path id="&lt;Path&gt;" class="s4" d="m480.4 142.7c0 1.3-1 2.3-2.2 2.3-1.2 0-2.3-1-2.3-2.3v-2.1c0-1.3 1.1-2.3 2.3-2.3 1.2 0 2.2 1 2.2 2.3z"/>
														</g>
														<g id="&lt;Group&gt;">
															<path id="&lt;Path&gt;" class="s4" d="m489.9 142.7c0 1.3-1 2.3-2.3 2.3-1.2 0-2.2-1-2.2-2.3v-2.1c0-1.3 1-2.3 2.2-2.3 1.3 0 2.3 1 2.3 2.3z"/>
														</g>
														<g id="&lt;Group&gt;">
															<path id="&lt;Path&gt;" class="s4" d="m499.3 142.7c0 1.3-1 2.3-2.2 2.3-1.2 0-2.3-1-2.3-2.3v-2.1c0-1.3 1.1-2.3 2.3-2.3 1.2 0 2.2 1 2.2 2.3z"/>
														</g>
														<g id="&lt;Group&gt;">
															<path id="&lt;Path&gt;" class="s4" d="m508.8 142.7c0 1.3-1 2.3-2.3 2.3-1.2 0-2.2-1-2.2-2.3v-2.1c0-1.3 1-2.3 2.2-2.3 1.3 0 2.3 1 2.3 2.3z"/>
														</g>
													</g>
													<g id="&lt;Group&gt;">
														<g id="&lt;Group&gt;">
															<g id="&lt;Group&gt;">
																<path id="&lt;Path&gt;" class="s4" d="m274.1 142.7c0 1.3-1 2.3-2.3 2.3-1.2 0-2.2-1-2.2-2.3v-2.1c0-1.3 1-2.3 2.2-2.3 1.3 0 2.3 1 2.3 2.3z"/>
															</g>
															<g id="&lt;Group&gt;">
																<path id="&lt;Path&gt;" class="s4" d="m266.5 138.7c0-2.6 2-4.7 4.6-4.7h1.4c2.6 0 4.7 2.1 4.7 4.7v11.9c0 2.6-2.1 4.6-4.7 4.6h-1.4c-2.6 0-4.6-2-4.6-4.6z"/>
															</g>
														</g>
														<g id="&lt;Group&gt;">
															<g id="&lt;Group&gt;">
																<path id="&lt;Path&gt;" class="s4" d="m289.1 142.7c0 1.3-1 2.3-2.2 2.3-1.3 0-2.3-1-2.3-2.3v-2.1c0-1.3 1-2.3 2.3-2.3 1.2 0 2.2 1 2.2 2.3z"/>
															</g>
															<g id="&lt;Group&gt;">
																<path id="&lt;Path&gt;" class="s4" d="m281.5 138.7c0-2.6 2.1-4.7 4.7-4.7h1.4c2.6 0 4.6 2.1 4.6 4.7v11.9c0 2.6-2 4.6-4.6 4.6h-1.4c-2.6 0-4.7-2-4.7-4.6z"/>
															</g>
														</g>
													</g>
													<g id="&lt;Group&gt;">
														<g id="&lt;Group&gt;">
															<path id="&lt;Path&gt;" class="s4" d="m99.6 127.6c0-2 1.6-3.6 3.6-3.6h8.5c2 0 3.6 1.6 3.6 3.6v29c0 2-1.6 3.6-3.6 3.6h-8.5c-2 0-3.6-1.6-3.6-3.6z"/>
														</g>
														<path id="&lt;Path&gt;" class="s4" d="m110.5 140.8c-0.7 0-1.3-0.6-1.3-1.3 0-0.7 0.6-1.2 1.3-1.2 0.7 0 1.3 0.5 1.3 1.2 0 0.7-0.6 1.3-1.3 1.3z"/>
													</g>
													<g id="&lt;Group&gt;">
														<g id="&lt;Group&gt;">
															<path id="&lt;Path&gt;" class="s4" d="m539.2 127.6c0-2 1.6-3.6 3.6-3.6h8.6c1.9 0 3.6 1.6 3.6 3.6v29c0 2-1.7 3.6-3.6 3.6h-8.6c-2 0-3.6-1.6-3.6-3.6z"/>
														</g>
														<path id="&lt;Path&gt;" class="s4" d="m550.1 140.8c-0.7 0-1.3-0.6-1.3-1.3 0-0.7 0.6-1.2 1.3-1.2 0.7 0 1.3 0.5 1.3 1.2 0 0.7-0.6 1.3-1.3 1.3z"/>
													</g>
												</g>
												<g id="&lt;Group&gt;">
													<path id="&lt;Path&gt;" class="s2" d="m649.7 138l-53.4 0.9-0.1-1.7 59.7-16.4 21.1 0.9z"/>
													<path id="&lt;Path&gt;" class="s4" d="m636.4 138.2l34.5-16.7"/>
												</g>
											</g>
										</g>
									</g>
								</g>
							</g>
						</g>
					</g>
				</g>
				<g id="&lt;Group&gt;">
					<g id="&lt;Group&gt;">
						<path id="&lt;Path&gt;" class="s6" d="m271.9 209.2c-3.2 0.7-6.5 1.2-9.7 1.6-9.8 1.1-19.7 0.8-29.5 0.9-3.2 0.1-7.7-0.7-10.3-1.1-2.6-0.4-4.2-2.2-4.2-2.2l-1.4-34.8c0 0 2.1-1.7 4.7-2.1 2.6-0.4 7.7-0.4 10.9-0.3l28.1 1.1c3.2 0.2 8.3 0.8 11.4 1.4l9.1 2.2-1.1 31.7c-2.6 0.7-5.3 1.1-8 1.6z"/>
						<path id="&lt;Path&gt;" class="s4" d="m219.3 172.2l1.6 37.9"/>
						<path id="&lt;Path&gt;" class="s4" d="m226.1 171.2v40"/>
						<path id="&lt;Path&gt;" class="s2" d="m280.8 180.8l31.3 7.4-0.9 10.5-31.2 4.9z"/>
						<path id="&lt;Path&gt;" class="s4" d="m286.2 182v20.6"/>
						<path id="&lt;Path&gt;" class="s7" d="m311.9 191.4l1.9 0.5v3.6l-2.4 0.7z"/>
					</g>
					<path id="&lt;Path&gt;" class="s4" d="m231.8 180.5h14.5c0 0-1-4.8-14.5 0z"/>
				</g>
			</g>
		</g>
	</g>
</svg>